# xmcd
# 
# Track frame offsets:
#     150
#     15817
#     36790
#     54550
#     71087
# 
# Disc length: 1154
# 
# Revision: 2
# Processed by: cddbd v1.5.2PL0 Copyright (c) Steve Scherf et al.
# Submitted via: fre:ac v1.1beta1pre5
# 
DISCID=36048005
DTITLE=INXS - Beautiful Girl
DYEAR=0
DGENRE=Alternative
TTITLE0=Beautiful girl
TTITLE1=Strange Desire (Original recording)
TTITLE2=In living room
TTITLE3=Ashtar speaks
TTITLE4=Wishing well (intrumental)
EXTD=
EXTT0=
EXTT1=
EXTT2=
EXTT3=
EXTT4=
PLAYORDER=
